<svg viewBox="0 0 256 256" xmlns="http://www.w3.org/2000/svg">
    <rect fill="hsl(240 50% 50%)" width="100%" height="100%"  />
    <path fill="white" d="m28.705 215.37c-0.38777-0.38778-0.70504-37.98-0.70504-83.538v-82.833h8.4891 8.4891l0.52171 83.727 42.284-83.227 6.7586-0.29913c3.7172-0.16452 7.3486-0.07272 8.0697 0.20401 0.93725 0.35965-1.4126 6.1485-8.2399 20.299-5.2531 10.888-12.866 26.83-16.919 35.428l-7.3675 15.632 10.824 24.868c5.953 13.677 15.158 34.746 20.455 46.82 5.2971 12.074 9.2509 22.332 8.7862 22.797s-4.1509 0.71133-8.1916 0.54804l-7.3467-0.2969-5.6498-13c-3.1074-7.15-10.5-24.025-16.428-37.5s-11.434-26.034-12.236-27.909l-1.4586-3.4086-13.341 23.817-1 58-7.545 0.28837c-4.1497 0.15861-7.8622-0.0289-8.25-0.41666zm94.764-0.42131c-0.55388-0.8962 1.2222-83.341 3.1603-146.7l0.58885-19.25h16.388l2.162 9.25c1.1891 5.0875 3.2868 14.2 4.6617 20.25s4.3506 19.1 6.6128 29c4.8027 21.017 9.1881 40.334 12.033 53 1.1117 4.95 3.0705 13.5 4.3528 19l2.3316 10 1.0783-4c0.59309-2.2 2.6912-10.975 4.6626-19.5 1.9713-8.525 4.4363-19.1 5.4778-23.5 1.0415-4.4 4.0159-17.225 6.6098-28.5 2.5939-11.275 7.0297-30.4 9.8574-42.5l5.1412-22 16.207-0.57756 0.59843 12.289c0.68345 14.035 2.2798 73.785 3.2605 122.04l0.66562 32.75h-6.6908c-4.4825 0-6.8166-0.41255-7.0722-1.25-0.20978-0.6875-0.87568-22.175-1.4798-47.75s-1.3871-53.448-1.74-61.941l-0.64165-15.441-6.3402 26.441c-3.4871 14.543-6.9694 29.141-7.7385 32.441-7.9033 33.914-15.881 66.155-16.532 66.81-0.44257 0.44577-2.969 0.67077-5.6143 0.5l-4.8096-0.31049-1.7269-6.5c-1.8081-6.8057-4.9841-20.093-19.59-81.958l-8.8433-37.458-0.69853 24.458c-0.3842 13.452-1.1644 41.477-1.7339 62.277-0.56942 20.801-1.2941 38.238-1.6105 38.75-0.79267 1.2826-12.186 1.1782-12.988-0.11896z"/>
</svg>
